# xmcd
#
# Track frame offsets: 
#        150
#        18637
#        34880
#        58982
#        75367
#
# Disc length: 1255 seconds
#
# Revision: 0
# Processed by: cddbd v1.5.2PL0 Copyright (c) Steve Scherf et al.
# Submitted via: ExactAudioCopy v0.95b4
#
DISCID=3904e505
DTITLE=The Gregory Brothers - Meet The Gregory Brothers!
DYEAR=2009
DGENRE=Soul
TTITLE0=Cry Cry Cry
TTITLE1=Butter On My Roll
TTITLE2=West Coast Time
TTITLE3=A Wonder
TTITLE4=Do You Think?
EXTD=
EXTT0=
EXTT1=
EXTT2=
EXTT3=
EXTT4=
PLAYORDER=
